<?xml version="1.0" encoding="UTF-8" standalone="yes"?>
<!DOCTYPE svg PUBLIC "-//W3C//DTD SVG 1.1//EN" "http://www.w3.org/Graphics/SVG/1.1/DTD/svg11.dtd">

<svg width="260" height="260" viewBox="0 0 260 260" xmlns="http://www.w3.org/2000/svg" xmlns:xlink="http://www.w3.org/1999/xlink" version="1.1" baseProfile="full">
    <!-- Pozadí – změň fill pro jinou barvu -->
    <rect id="background" width="260" height="260" x="0" y="0" fill="transparent"/>
    <g transform="scale(1.000000,-1.000000) translate(0,-260)">
        <path d="M 15.000000 13.000000 L 132.595927 13.000000 C 133.700497 13.000000 134.595927 13.895430 134.595927 15.000000 L 134.595927 200.260700 C 134.595927 201.365270 133.700497 202.260700 132.595927 202.260700 L 15.000000 202.260700 C 13.895430 202.260700 13.000000 201.365270 13.000000 200.260700 L 13.000000 15.000000 C 13.000000 13.895430 13.895430 13.000000 15.000000 13.000000 Z M 15.000000 1.000000 C 7.268013 1.000000 1.000000 7.268014 1.000000 15.000000 L 1.000000 200.260700 C 1.000000 207.992687 7.268013 214.260700 15.000000 214.260700 L 132.595927 214.260700 C 140.327914 214.260700 146.595927 207.992687 146.595927 200.260700 L 146.595927 15.000000 C 146.595927 7.268014 140.327914 1.000000 132.595927 1.000000 L 15.000000 1.000000 Z" transform="scale(1.000000,1.000000) translate(56.202036,22.369650)" fill="#ffffff" opacity="1.000000"></path>
        <path d="M 6.000000 11.000000 L 97.757114 11.000000 C 100.518537 11.000000 102.757114 8.761424 102.757114 6.000000 C 102.757114 3.238576 100.518537 1.000000 97.757114 1.000000 L 6.000000 1.000000 C 3.238576 1.000000 1.000000 3.238576 1.000000 6.000000 C 1.000000 8.761424 3.238576 11.000000 6.000000 11.000000 Z" transform="scale(1.000000,1.000000) translate(77.384203,195.301251)" fill="#ffffff" opacity="1.000000"></path>
        <path d="M 6.000000 11.000000 L 97.757114 11.000000 C 100.518537 11.000000 102.757114 8.761424 102.757114 6.000000 C 102.757114 3.238576 100.518537 1.000000 97.757114 1.000000 L 6.000000 1.000000 C 3.238576 1.000000 1.000000 3.238576 1.000000 6.000000 C 1.000000 8.761424 3.238576 11.000000 6.000000 11.000000 Z" transform="scale(1.000000,1.000000) translate(78.121443,170.793866)" fill="#ffffff" opacity="1.000000"></path>
        <path d="M 6.000000 11.000000 L 97.757114 11.000000 C 100.518537 11.000000 102.757114 8.761424 102.757114 6.000000 C 102.757114 3.238576 100.518537 1.000000 97.757114 1.000000 L 6.000000 1.000000 C 3.238576 1.000000 1.000000 3.238576 1.000000 6.000000 C 1.000000 8.761424 3.238576 11.000000 6.000000 11.000000 Z" transform="scale(1.000000,1.000000) translate(78.121443,146.056237)" fill="#ffffff" opacity="1.000000"></path>
        <path d="M 6.000000 11.000000 L 97.757114 11.000000 C 100.518537 11.000000 102.757114 8.761424 102.757114 6.000000 C 102.757114 3.238576 100.518537 1.000000 97.757114 1.000000 L 6.000000 1.000000 C 3.238576 1.000000 1.000000 3.238576 1.000000 6.000000 C 1.000000 8.761424 3.238576 11.000000 6.000000 11.000000 Z" transform="scale(1.000000,1.000000) translate(78.121443,121.866974)" fill="#ffffff" opacity="1.000000"></path>
        <path d="M 6.000000 11.000000 L 97.757114 11.000000 C 100.518537 11.000000 102.757114 8.761424 102.757114 6.000000 C 102.757114 3.238576 100.518537 1.000000 97.757114 1.000000 L 6.000000 1.000000 C 3.238576 1.000000 1.000000 3.238576 1.000000 6.000000 C 1.000000 8.761424 3.238576 11.000000 6.000000 11.000000 Z" transform="scale(1.000000,1.000000) translate(77.125275,96.895685)" fill="#ffffff" opacity="1.000000"></path>
        <path d="M 137.209111 173.821630 L 177.140214 157.147122 L 128.350012 40.307295 Q 117.348783 13.962218 94.627086 5.067355 Q 71.905389 -3.827508 46.623566 6.729725 Q 17.561284 18.865610 6.429564 39.885321 Q -4.702156 60.905031 6.988435 87.239723 L 7.638850 87.800560 L 46.624839 71.520715 Q 41.346222 58.879804 45.259104 50.308861 Q 49.171987 41.737918 59.450111 37.445959 Q 67.247309 34.189990 75.193800 39.265441 Q 83.140292 44.340892 88.418908 56.981803 Z" transform="scale(1.000000,1.000000) translate(46.552975,15.484870)" id="j-inner" fill="#2ec8ff" opacity="1.000000"></path>
        <path d="M 83.193900 2.345100 L 84.684000 2.369100 L 84.892400 2.375200 L 86.377500 2.437200 L 86.586700 2.448600 L 88.066900 2.548600 L 88.277000 2.565500 L 89.752100 2.703600 L 89.961000 2.725900 L 91.431100 2.901900 L 91.640000 2.929600 L 93.105100 3.143600 L 93.312500 3.176700 L 94.772600 3.428600 L 94.979800 3.467100 L 96.434900 3.757100 L 96.639700 3.800700 L 98.089800 4.128700 L 98.292500 4.177200 L 99.737600 4.543200 L 99.937300 4.596500 L 101.377400 5.000400 L 101.575300 5.058600 L 103.010400 5.500600 L 103.204000 5.562900 L 104.634100 6.042800 L 104.825300 6.109600 L 106.250400 6.627600 L 106.390400 6.680000 L 107.101100 6.953200 L 107.197200 6.990800 L 107.904400 7.273000 L 108.054100 7.334500 L 109.451300 7.924500 L 109.650600 8.011800 L 111.024900 8.635900 L 111.223200 8.729200 L 112.574700 9.387400 L 112.772000 9.486800 L 114.100500 10.179000 L 114.296500 10.284600 L 115.602200 11.011000 L 115.795800 11.122200 L 117.078500 11.882600 L 117.269500 11.999400 L 118.529400 12.793900 L 118.717700 12.916300 L 119.954700 13.744900 L 120.139800 13.872600 L 121.353800 14.735300 L 121.534100 14.867200 L 122.725300 15.763900 L 122.902400 15.901100 L 124.070700 16.832000 L 124.242500 16.972800 L 125.387900 17.937700 L 125.554900 18.082300 L 126.677500 19.081300 L 126.839900 19.229700 L 127.939500 20.262800 L 128.095800 20.413700 L 129.172500 21.480800 L 129.323500 21.634500 L 130.377400 22.735800 L 130.522700 22.891600 L 131.553600 24.026900 L 131.692700 24.184100 L 132.700800 25.353500 L 132.834400 25.512600 L 133.819500 26.716100 L 133.946600 26.875400 L 134.908900 28.113000 L 135.030300 28.273100 L 135.969700 29.544800 L 136.084900 29.704800 L 137.001400 31.010500 L 137.110800 31.170400 L 138.004400 32.510200 L 138.108000 32.669500 L 138.978700 34.043400 L 139.076600 34.201900 L 139.924400 35.609900 L 140.016700 35.767100 L 140.841600 37.209200 L 140.928200 37.364500 L 141.730300 38.840600 L 141.812200 38.995300 L 142.591300 40.505600 L 142.667500 40.657200 L 143.423800 42.201500 L 143.495600 42.352000 L 144.228900 43.930400 L 144.295700 44.078000 L 145.006200 45.690500 L 145.053600 45.800200 L 145.415300 46.655000 L 194.205500 163.494800 L 194.487400 164.279100 L 194.685000 165.072500 L 194.800600 165.869800 L 194.836200 166.665500 L 194.794000 167.454300 L 194.676400 168.230800 L 194.485400 168.989700 L 194.223300 169.725700 L 193.892300 170.433300 L 193.494600 171.107300 L 193.032300 171.742200 L 192.507700 172.332800 L 191.923000 172.873600 L 191.280400 173.359400 L 190.582000 173.784700 L 189.830100 174.144200 L 149.899000 190.818800 L 149.114700 191.100800 L 148.321300 191.298400 L 147.524000 191.414000 L 146.728300 191.449600 L 145.939500 191.407400 L 145.163000 191.289800 L 144.404100 191.098800 L 143.668100 190.836700 L 142.960500 190.505700 L 142.286500 190.108000 L 141.651600 189.645700 L 141.061000 189.121100 L 140.520200 188.536400 L 140.034400 187.893800 L 139.609100 187.195400 L 139.249500 186.443500 L 90.478900 69.650000 L 90.176400 68.938100 L 89.571600 67.586700 L 88.967200 66.327100 L 88.352000 65.132300 L 87.729100 64.006200 L 87.098800 62.946500 L 86.464700 61.956300 L 85.822600 61.026900 L 85.181100 60.167400 L 84.535600 59.369200 L 83.890400 58.634100 L 83.245600 57.959600 L 82.603600 57.345200 L 81.960400 56.784300 L 81.322500 56.279800 L 80.639900 55.793000 L 80.359400 55.608700 L 80.072900 55.430400 L 79.382600 55.034100 L 78.767200 54.721100 L 78.184000 54.462300 L 77.630700 54.252900 L 77.106000 54.088800 L 76.609800 53.966100 L 76.132700 53.879500 L 75.676700 53.826800 L 75.230300 53.804700 L 74.787600 53.812100 L 74.341200 53.849200 L 73.886700 53.917300 L 73.415400 54.019300 L 72.925300 54.158200 L 72.350900 54.359400 L 72.120300 54.451900 L 71.677000 54.641700 L 70.683400 55.100200 L 69.786400 55.556800 L 68.941200 56.030700 L 68.151900 56.518000 L 67.415800 57.017800 L 66.727600 57.532100 L 66.088100 58.058100 L 65.495200 58.595500 L 64.942100 59.148700 L 64.430800 59.714100 L 63.956200 60.295800 L 63.516600 60.894900 L 63.108500 61.515800 L 62.731000 62.160000 L 62.359000 62.876600 L 62.226200 63.158000 L 62.119200 63.403200 L 61.868700 64.065400 L 61.679200 64.688100 L 61.524700 65.346800 L 61.407700 66.041100 L 61.329200 66.783200 L 61.292700 67.574300 L 61.301600 68.418800 L 61.359500 69.318000 L 61.470500 70.277600 L 61.637200 71.288900 L 61.864600 72.363300 L 62.153200 73.488400 L 62.508500 74.675500 L 62.930400 75.915100 L 63.431200 77.233700 L 63.714500 77.927400 L 63.989000 78.709600 L 64.180100 79.500300 L 64.289800 80.294200 L 64.320500 81.086200 L 64.274200 81.870900 L 64.153200 82.643100 L 63.959700 83.397500 L 63.695900 84.128800 L 63.363800 84.831800 L 62.965800 85.501300 L 62.504000 86.131900 L 61.980600 86.718300 L 61.397800 87.255400 L 60.757800 87.737900 L 60.062700 88.160500 L 59.314800 88.517800 L 20.328800 104.797700 L 19.790600 105.000600 L 19.244300 105.163600 L 18.692100 105.287300 L 18.135800 105.371800 L 17.577500 105.417500 L 17.019200 105.424700 L 16.462900 105.393800 L 15.910500 105.325000 L 15.364100 105.218700 L 14.825800 105.075100 L 14.297400 104.894700 L 13.780900 104.677800 L 13.278500 104.424500 L 12.792000 104.135400 L 12.323500 103.810600 L 11.875000 103.450500 L 11.224600 102.889600 L 10.570100 102.258100 L 9.991800 101.559800 L 9.494800 100.801600 L 9.084000 99.990200 L 8.724200 99.168600 L 8.674200 99.052000 L 7.988100 97.416400 L 7.923000 97.256400 L 7.281500 95.631300 L 7.217900 95.464800 L 6.621000 93.850000 L 6.559400 93.677700 L 6.007000 92.073300 L 5.947700 91.894100 L 5.439900 90.300100 L 5.383200 90.114400 L 4.920000 88.530800 L 4.866300 88.338600 L 4.447700 86.765300 L 4.397600 86.567200 L 4.023500 85.004300 L 3.977300 84.799500 L 3.647800 83.247100 L 3.605800 83.035700 L 3.320900 81.493500 L 3.283800 81.276300 L 3.043500 79.744600 L 3.011800 79.522100 L 2.816000 78.000800 L 2.789800 77.772100 L 2.638600 76.261100 L 2.618600 76.027400 L 2.512000 74.526800 L 2.498600 74.288400 L 2.436600 72.798200 L 2.430100 72.556000 L 2.412600 71.076200 L 2.413500 70.829800 L 2.440600 69.360300 L 2.449000 69.110900 L 2.520700 67.651900 L 2.536900 67.400500 L 2.653100 65.951800 L 2.677500 65.697700 L 2.838400 64.259400 L 2.870900 64.005300 L 3.076300 62.577400 L 3.117100 62.322700 L 3.367100 60.905100 L 3.416000 60.651200 L 3.710500 59.244100 L 3.767800 58.990700 L 4.107000 57.593900 L 4.172000 57.343600 L 4.555700 55.957200 L 4.628600 55.709100 L 5.056900 54.333100 L 5.137000 54.089300 L 5.609800 52.723600 L 5.697300 52.483200 L 6.214700 51.128000 L 6.308900 50.892400 L 6.871000 49.547500 L 6.970900 49.318500 L 7.577400 47.984000 L 7.683600 47.759500 L 8.334800 46.435400 L 8.417400 46.272000 L 8.759700 45.613800 L 8.813000 45.513200 L 9.165200 44.858500 L 9.242900 44.717300 L 9.973700 43.421000 L 10.080500 43.237200 L 10.846300 41.958100 L 10.957900 41.777100 L 11.758700 40.515500 L 11.873800 40.339200 L 12.709600 39.094800 L 12.829000 38.922000 L 13.699800 37.695100 L 13.822200 37.527100 L 14.728100 36.317400 L 14.853700 36.154100 L 15.794500 34.961900 L 15.922600 34.803600 L 16.898500 33.628600 L 17.029700 33.474700 L 18.040700 32.317200 L 18.172700 32.169700 L 19.218600 31.029400 L 19.353400 30.885900 L 20.434400 29.763100 L 20.569500 29.626000 L 21.685400 28.520500 L 21.822100 28.388300 L 22.973100 27.300100 L 23.110600 27.173000 L 24.296700 26.102200 L 24.433900 25.981200 L 25.654900 24.927700 L 25.792800 24.811300 L 27.048900 23.775200 L 27.185900 23.664700 L 28.476900 22.645900 L 28.614200 22.539900 L 29.940300 21.538500 L 30.076900 21.437500 L 31.438100 20.453500 L 31.573000 20.358100 L 32.969100 19.391400 L 33.103300 19.300400 L 34.534500 18.351000 L 34.667600 18.264600 L 36.133800 17.332600 L 36.265000 17.251000 L 37.766200 16.336300 L 37.896200 16.258700 L 39.432400 15.361400 L 39.560800 15.288000 L 41.132100 14.408100 L 41.257900 14.339000 L 42.864100 13.476400 L 42.988400 13.411000 L 44.629700 12.565700 L 44.752200 12.504000 L 46.428500 11.676100 L 46.548900 11.617900 L 48.260200 10.807400 L 48.378200 10.752600 L 50.124600 9.959400 L 50.240700 9.907800 L 52.106700 9.095700 L 53.076300 8.686700 L 53.865700 8.361600 L 53.976100 8.317100 L 55.551200 7.695200 L 55.703800 7.636700 L 57.274000 7.052900 L 57.430400 6.996600 L 58.995500 6.450800 L 59.156100 6.396700 L 60.716200 5.888800 L 60.881500 5.836900 L 62.436600 5.367000 L 62.606800 5.317600 L 64.156900 4.885800 L 64.330400 4.839500 L 65.875500 4.445600 L 66.053600 4.402300 L 67.593700 4.046400 L 67.775900 4.006500 L 69.311000 3.688600 L 69.496900 3.652400 L 71.027000 3.372500 L 71.216700 3.340100 L 72.741900 3.098200 L 72.934800 3.069900 L 74.454900 2.866000 L 74.650600 2.842200 L 76.165700 2.676200 L 76.365300 2.656800 L 77.875400 2.528900 L 78.077000 2.514400 L 79.582100 2.424500 L 79.785500 2.414900 L 81.285600 2.362900 L 81.492000 2.358300 L 82.987100 2.344400 Z M 81.567700 10.499100 L 80.067600 10.551100 L 78.562500 10.641000 L 77.052400 10.768900 L 75.537300 10.934900 L 74.017200 11.138800 L 72.492000 11.380700 L 70.961900 11.660600 L 69.426800 11.978500 L 67.886700 12.334400 L 66.341600 12.728300 L 64.791500 13.160100 L 63.236400 13.630000 L 61.676300 14.137900 L 60.111200 14.683700 L 58.541000 15.267500 L 56.965900 15.889400 L 56.176500 16.214500 L 55.272700 16.596000 L 53.491300 17.371800 L 51.744900 18.165000 L 50.033600 18.975500 L 48.357300 19.803400 L 46.716000 20.648700 L 45.109800 21.511300 L 43.538500 22.391200 L 42.002300 23.288500 L 40.501100 24.203200 L 39.034900 25.135200 L 37.603700 26.084600 L 36.207600 27.051300 L 34.846400 28.035300 L 33.520300 29.036700 L 32.229300 30.055500 L 30.973200 31.091600 L 29.752200 32.145100 L 28.566100 33.215900 L 27.415100 34.304100 L 26.299200 35.409600 L 25.218200 36.532400 L 24.172300 37.672700 L 23.161300 38.830200 L 22.185400 40.005200 L 21.244600 41.197400 L 20.338700 42.407100 L 19.467900 43.634000 L 18.632100 44.878400 L 17.831300 46.140000 L 17.065500 47.419100 L 16.334700 48.715400 L 15.982500 49.370100 L 15.640200 50.028300 L 14.989000 51.352400 L 14.382500 52.686900 L 13.820400 54.031800 L 13.303000 55.387000 L 12.830200 56.752700 L 12.401900 58.128700 L 12.018200 59.515100 L 11.679000 60.911900 L 11.384500 62.319000 L 11.134500 63.736600 L 10.929100 65.164500 L 10.768200 66.602800 L 10.652000 68.051500 L 10.580300 69.510500 L 10.553200 70.980000 L 10.570700 72.459800 L 10.632700 73.950000 L 10.739300 75.450600 L 10.890500 76.961600 L 11.086300 78.482900 L 11.326600 80.014600 L 11.611500 81.556800 L 11.941000 83.109200 L 12.315100 84.672100 L 12.733700 86.245400 L 13.196900 87.829000 L 13.704700 89.423000 L 14.257100 91.027400 L 14.854000 92.642200 L 15.495500 94.267300 L 16.181600 95.902900 L 16.541400 96.724500 L 17.191800 97.285400 L 56.177800 81.005500 L 55.856800 80.219500 L 55.268800 78.671100 L 54.752600 77.154600 L 54.308200 75.669900 L 53.935600 74.217000 L 53.634800 72.795800 L 53.405800 71.406500 L 53.248700 70.049000 L 53.163300 68.723200 L 53.149800 67.429300 L 53.208000 66.167100 L 53.338100 64.936800 L 53.540000 63.738200 L 53.813700 62.571500 L 54.159100 61.436500 L 54.576500 60.333300 L 54.812000 59.793700 L 55.062800 59.262200 L 55.601600 58.224200 L 56.190200 57.219700 L 56.828500 56.248600 L 57.516500 55.311000 L 58.254300 54.406800 L 59.041800 53.536000 L 59.879000 52.698600 L 60.765900 51.894700 L 61.702600 51.124200 L 62.689000 50.387100 L 63.725100 49.683500 L 64.810900 49.013300 L 65.946500 48.376500 L 67.131800 47.773100 L 68.366900 47.203200 L 69.003000 46.930800 L 69.490500 46.735400 L 70.466300 46.393500 L 71.443300 46.116700 L 72.421500 45.905000 L 73.400800 45.758300 L 74.381300 45.676800 L 75.362900 45.660300 L 76.345700 45.708900 L 77.329700 45.822700 L 78.314800 46.001500 L 79.301200 46.245400 L 80.288600 46.554300 L 81.277300 46.928400 L 82.267100 47.367600 L 83.258100 47.871800 L 84.250200 48.441200 L 84.746700 48.750300 L 85.240800 49.074900 L 86.213200 49.768400 L 87.164900 50.521000 L 88.095700 51.332800 L 89.005600 52.203600 L 89.894700 53.133600 L 90.762900 54.122700 L 91.610400 55.170800 L 92.436900 56.278100 L 93.242700 57.444500 L 94.027500 58.670000 L 94.791600 59.954600 L 95.534800 61.298200 L 96.257100 62.701000 L 96.958600 64.162900 L 97.639300 65.684000 L 97.971800 66.466600 L 146.762000 183.306500 L 186.693100 166.631900 L 137.902900 49.792100 L 137.556300 48.973100 L 136.845800 47.360600 L 136.112500 45.782200 L 135.356200 44.237900 L 134.577100 42.727600 L 133.775000 41.251500 L 132.950100 39.809400 L 132.102300 38.401400 L 131.231600 37.027500 L 130.338000 35.687700 L 129.421500 34.382000 L 128.482100 33.110300 L 127.519800 31.872700 L 126.534700 30.669200 L 125.526600 29.499800 L 124.495700 28.364500 L 123.441800 27.263200 L 122.365100 26.196100 L 121.265500 25.163000 L 120.142900 24.164000 L 118.997500 23.199100 L 117.829200 22.268200 L 116.638000 21.371500 L 115.424000 20.508800 L 114.187000 19.680200 L 112.927100 18.885700 L 111.644400 18.125300 L 110.338700 17.398900 L 109.010200 16.706700 L 107.658700 16.048500 L 106.284400 15.424400 L 104.887200 14.834400 L 104.180000 14.552200 L 103.469300 14.279000 L 102.044200 13.761000 L 100.614100 13.281100 L 99.179000 12.839100 L 97.738900 12.435200 L 96.293800 12.069200 L 94.843700 11.741200 L 93.388600 11.451200 L 91.928500 11.199300 L 90.463400 10.985300 L 88.993300 10.809300 L 87.518200 10.671200 L 86.038000 10.571200 L 84.552900 10.509200 L 83.062800 10.485200 Z" transform="scale(1.000000,1.000000) translate(37.000000,6.000000)" fill="#ffffff" opacity="1.000000"></path>
    </g>
</svg>