<?xml version="1.0" encoding="UTF-8" standalone="yes"?>
<!DOCTYPE svg PUBLIC "-//W3C//DTD SVG 1.1//EN" "http://www.w3.org/Graphics/SVG/1.1/DTD/svg11.dtd">

<svg width="1024" height="1024" viewBox="0 0 1024 1024" xmlns="http://www.w3.org/2000/svg" xmlns:xlink="http://www.w3.org/1999/xlink" version="1.1" baseProfile="full">
    <g transform="scale(1.000000,-1.000000) translate(0,-1024)">
        <path d="M 1.000000 376.000000 L 376.000000 376.000000 C 376.000000 376.000000 376.000000 376.000000 376.000000 376.000000 L 376.000000 1.000000 C 376.000000 1.000000 376.000000 1.000000 376.000000 1.000000 L 1.000000 1.000000 C 1.000000 1.000000 1.000000 1.000000 1.000000 1.000000 L 1.000000 376.000000 C 1.000000 376.000000 1.000000 376.000000 1.000000 376.000000 Z" transform="scale(1.000000,1.000000) translate(324.623677,299.119048)" fill="#000000" opacity="0.000000"></path>
        <path d="M 117.511492 1.001010 L 119.660670 1.035625 L 119.961254 1.044423 L 122.103225 1.133846 L 122.404952 1.150289 L 124.539859 1.294519 L 124.842885 1.318894 L 126.970430 1.518077 L 127.271729 1.550240 L 129.392066 1.804087 L 129.693364 1.844039 L 131.806494 2.152692 L 132.105625 2.200433 L 134.211536 2.563750 L 134.510381 2.619279 L 136.609084 3.037548 L 136.904474 3.100433 L 138.995959 3.573509 L 139.288322 3.643461 L 141.372599 4.171346 L 141.660627 4.248221 L 143.737697 4.830769 L 144.023128 4.914712 L 146.092979 5.552211 L 146.372215 5.642068 L 148.434858 6.334231 L 148.710628 6.430577 L 150.766053 7.177693 L 150.967986 7.253269 L 151.993025 7.647308 L 152.131630 7.701538 L 153.151640 8.108557 L 153.367548 8.197259 L 155.382743 9.048221 L 155.670187 9.174134 L 157.652359 10.074278 L 157.938362 10.208847 L 159.887643 11.158173 L 160.172216 11.301539 L 162.088320 12.299904 L 162.371011 12.452212 L 164.254236 13.499903 L 164.533460 13.660289 L 166.383508 14.757019 L 166.658991 14.925481 L 168.476159 16.071394 L 168.747736 16.247933 L 170.531870 17.443029 L 170.798848 17.627211 L 172.549805 18.871491 L 172.809861 19.061731 L 174.527938 20.355048 L 174.783361 20.552933 L 176.468416 21.895578 L 176.716202 22.098653 L 178.368223 23.490337 L 178.609088 23.698895 L 180.228218 25.139761 L 180.462448 25.353798 L 182.048412 26.843847 L 182.273838 27.061491 L 183.826780 28.600578 L 184.044570 28.822260 L 185.564609 30.410673 L 185.774190 30.635384 L 187.261064 32.272836 L 187.461687 32.499566 L 188.915681 34.186203 L 189.108360 34.415673 L 190.529188 36.151491 L 190.712492 36.381251 L 192.100440 38.166251 L 192.275534 38.397163 L 193.630427 40.231346 L 193.796586 40.462115 L 195.118467 42.345337 L 195.276241 42.575963 L 196.565088 44.508366 L 196.714522 44.738123 L 197.970335 46.719711 L 198.111537 46.948318 L 199.334316 48.979089 L 199.467442 49.205819 L 200.657209 51.285772 L 200.782126 51.509757 L 201.938992 53.638749 L 202.057108 53.861876 L 203.180808 56.040192 L 203.290715 56.258846 L 204.381535 58.486202 L 204.485104 58.703271 L 205.542736 60.979809 L 205.639087 61.192691 L 206.663839 63.518411 L 206.732217 63.676637 L 207.253892 64.909518 L 277.624383 233.428457 L 278.030956 234.559661 L 278.315958 235.703983 L 278.482690 236.853938 L 278.534034 238.001582 L 278.473182 239.139279 L 278.303568 240.259237 L 278.028073 241.353799 L 277.650044 242.415326 L 277.172649 243.435919 L 276.599036 244.408029 L 275.932264 245.323754 L 275.175633 246.175569 L 274.332314 246.955572 L 273.405474 247.656258 L 272.398174 248.269661 L 271.313692 248.788167 L 213.720772 272.838080 L 212.589568 273.244807 L 211.445247 273.529809 L 210.295291 273.696541 L 209.147647 273.747885 L 208.009950 273.687011 L 206.889992 273.517397 L 205.795430 273.241924 L 204.733903 272.863895 L 203.713310 272.386500 L 202.741200 271.812887 L 201.825475 271.146115 L 200.973660 270.389462 L 200.193658 269.546165 L 199.492971 268.619325 L 198.879568 267.612025 L 198.360908 266.527543 L 128.018698 98.075387 L 127.582403 97.048610 L 126.710099 95.099472 L 125.838367 93.282744 L 124.951054 91.559473 L 124.052649 89.935292 L 123.143559 88.406873 L 122.228989 86.978700 L 121.302886 85.638223 L 120.377643 84.398558 L 119.446633 83.247310 L 118.516063 82.187070 L 117.586055 81.214229 L 116.660095 80.328076 L 115.732409 79.519089 L 114.812359 78.791443 L 113.827837 78.089326 L 113.423266 77.823509 L 113.010046 77.566347 L 112.014421 76.994759 L 111.126822 76.543317 L 110.285670 76.170047 L 109.487643 75.868028 L 108.730869 75.631344 L 108.015195 75.454373 L 107.327064 75.329473 L 106.669370 75.253464 L 106.025530 75.221585 L 105.387016 75.232259 L 104.743176 75.285771 L 104.087649 75.383992 L 103.407881 75.531104 L 102.701010 75.731441 L 101.872546 76.021637 L 101.539952 76.155049 L 100.900580 76.428799 L 99.467504 77.090097 L 98.173750 77.748655 L 96.954712 78.432165 L 95.816300 79.135002 L 94.754618 79.855865 L 93.762019 80.597645 L 92.839659 81.356301 L 91.984521 82.131396 L 91.186780 82.929280 L 90.449329 83.744760 L 89.764807 84.583749 L 89.130771 85.447838 L 88.542165 86.343366 L 87.997691 87.272500 L 87.461155 88.306055 L 87.269615 88.711925 L 87.115291 89.065574 L 86.753988 90.020672 L 86.480672 90.918802 L 86.257837 91.868849 L 86.089086 92.870240 L 85.975866 93.940582 L 85.923224 95.081590 L 85.936060 96.299616 L 86.019569 97.596540 L 86.179665 98.980582 L 86.420095 100.439186 L 86.748079 101.988793 L 87.164324 103.611543 L 87.676778 105.323701 L 88.285290 107.111587 L 89.007593 109.013419 L 89.416202 110.013941 L 89.812113 111.142119 L 90.087740 112.282545 L 90.245965 113.427592 L 90.290245 114.569899 L 90.223462 115.701687 L 90.048940 116.815428 L 89.769858 117.903508 L 89.389375 118.958269 L 88.910385 119.972215 L 88.336348 120.937832 L 87.670291 121.847352 L 86.915382 122.693125 L 86.074808 123.467791 L 85.151732 124.163702 L 84.149180 124.773221 L 83.070481 125.288557 L 26.840673 148.769181 L 26.064423 149.061831 L 25.276492 149.296919 L 24.480049 149.475337 L 23.677691 149.597216 L 22.872451 149.663130 L 22.067211 149.673507 L 21.264856 149.628941 L 20.468124 149.529707 L 19.680049 149.376389 L 18.903654 149.169284 L 18.141539 148.909085 L 17.396586 148.596254 L 16.671971 148.230913 L 15.970288 147.813941 L 15.294567 147.345481 L 14.647692 146.826107 L 13.709615 146.017119 L 12.765625 145.106302 L 11.931539 144.099134 L 11.214711 143.005574 L 10.622211 141.835283 L 10.103270 140.650291 L 10.031154 140.482118 L 9.041587 138.123073 L 8.947692 137.892309 L 8.022452 135.548416 L 7.930721 135.308266 L 7.069807 132.979229 L 6.980962 132.730716 L 6.184231 130.416687 L 6.098702 130.158216 L 5.366298 127.859186 L 5.284519 127.591350 L 4.616442 125.307308 L 4.538990 125.030096 L 3.935240 122.760909 L 3.862981 122.475192 L 3.323413 120.221014 L 3.256779 119.925624 L 2.781538 117.686588 L 2.720961 117.381680 L 2.310048 115.157356 L 2.256538 114.844085 L 1.909952 112.634902 L 1.864231 112.313994 L 1.581827 110.119809 L 1.544038 109.789955 L 1.325962 107.610626 L 1.297115 107.273554 L 1.143365 105.109234 L 1.124038 104.765383 L 1.034615 102.616061 L 1.025240 102.266731 L 1.000000 100.132407 L 1.001298 99.777024 L 1.040384 97.657546 L 1.052500 97.297838 L 1.155913 95.193512 L 1.179279 94.830910 L 1.346875 92.741439 L 1.382067 92.374953 L 1.614134 90.300480 L 1.661009 89.933994 L 1.957259 87.874520 L 2.016106 87.507164 L 2.376683 85.462551 L 2.447211 85.096345 L 2.871971 83.066873 L 2.954615 82.701394 L 3.443846 80.686777 L 3.537596 80.325771 L 4.091009 78.326153 L 4.196154 77.968316 L 4.813894 75.983701 L 4.929423 75.632065 L 5.611346 73.662306 L 5.737548 73.315577 L 6.483798 71.360959 L 6.619663 71.021152 L 7.430384 69.081395 L 7.574471 68.751107 L 8.449231 66.826348 L 8.602404 66.502546 L 9.541634 64.592786 L 9.660770 64.357115 L 10.154471 63.407789 L 10.231346 63.262691 L 10.739327 62.318416 L 10.851394 62.114760 L 11.905432 60.245098 L 12.059471 59.980003 L 13.163991 58.135143 L 13.324952 57.874086 L 14.479952 56.054470 L 14.645962 55.800191 L 15.851443 54.005383 L 16.023654 53.756155 L 17.279615 51.986585 L 17.456154 51.744278 L 18.762740 49.999522 L 18.943894 49.763988 L 20.300818 48.044470 L 20.485577 47.816154 L 21.893126 46.121444 L 22.082355 45.899473 L 23.540530 44.230000 L 23.730915 44.017261 L 25.239422 42.372596 L 25.433845 42.165626 L 26.992982 40.546202 L 27.187836 40.348461 L 28.797308 38.753991 L 28.994471 38.563317 L 30.654568 36.993799 L 30.852884 36.810481 L 32.563605 35.266057 L 32.761492 35.091538 L 34.522547 33.572067 L 34.721444 33.404183 L 36.533126 31.909808 L 36.730721 31.750432 L 38.592740 30.281011 L 38.790770 30.128125 L 40.703413 28.683798 L 40.900433 28.538125 L 42.863703 27.118895 L 43.058269 26.981299 L 45.071876 25.587018 L 45.265430 25.455769 L 47.329664 24.086442 L 47.521633 23.961828 L 49.636347 22.617596 L 49.825576 22.499903 L 51.990771 21.180625 L 52.178267 21.068701 L 54.393942 19.774519 L 54.579133 19.668654 L 56.845431 18.399568 L 57.026875 18.299904 L 59.343512 17.055770 L 59.522788 16.961443 L 61.890048 15.742259 L 62.066732 15.653269 L 64.484473 14.459182 L 64.658126 14.375240 L 67.126347 13.206250 L 67.296539 13.127211 L 69.815384 11.983173 L 69.982836 11.908750 L 72.674184 10.737452 L 74.072646 10.147548 L 75.211202 9.678654 L 75.370434 9.614471 L 77.642213 8.717500 L 77.862308 8.633125 L 80.127017 7.791106 L 80.352597 7.709904 L 82.609950 6.922692 L 82.841588 6.844663 L 85.091733 6.112116 L 85.330145 6.037260 L 87.573076 5.359519 L 87.818558 5.288269 L 90.054277 4.665481 L 90.304517 4.598702 L 92.533034 4.030577 L 92.789899 3.968125 L 95.011197 3.454808 L 95.273993 3.397259 L 97.488073 2.938750 L 97.756205 2.886539 L 99.963077 2.482837 L 100.236679 2.436106 L 102.436487 2.087212 L 102.714710 2.046394 L 104.907167 1.752308 L 105.189418 1.717981 L 107.374667 1.478558 L 107.662552 1.450577 L 109.840572 1.266106 L 110.131351 1.245192 L 112.302163 1.115529 L 112.595528 1.101683 L 114.759133 1.026683 L 115.056822 1.020048 L 117.213219 1.000000 Z M 115.166014 12.761586 L 113.002399 12.836586 L 110.831586 12.966250 L 108.653556 13.150721 L 106.468317 13.390145 L 104.275861 13.684230 L 102.076053 14.033125 L 99.869181 14.436827 L 97.655101 14.895337 L 95.433803 15.408654 L 93.205286 15.976779 L 90.969562 16.599567 L 88.726635 17.277308 L 86.476490 18.009856 L 84.219132 18.797067 L 81.954424 19.639087 L 79.682645 20.536057 L 78.544084 21.004953 L 77.240531 21.555193 L 74.671200 22.674134 L 72.152355 23.818174 L 69.684134 24.987164 L 67.266394 26.181250 L 64.899134 27.400434 L 62.582498 28.644566 L 60.316204 29.913653 L 58.100529 31.207836 L 55.935335 32.527115 L 53.820626 33.871347 L 51.756392 35.240674 L 49.742788 36.634952 L 47.779521 38.054182 L 45.866878 39.498509 L 44.004858 40.967933 L 42.193173 42.462308 L 40.432114 43.981778 L 38.721393 45.526203 L 37.061298 47.095721 L 35.451827 48.690191 L 33.892693 50.309613 L 32.384183 51.954277 L 30.926011 53.623750 L 29.518461 55.318461 L 28.161539 57.037980 L 26.854951 58.782741 L 25.598989 60.552306 L 24.393508 62.347114 L 23.238511 64.166730 L 22.133991 66.011589 L 21.079951 67.881251 L 20.571971 68.825526 L 20.078269 69.774858 L 19.139039 71.684618 L 18.264278 73.609377 L 17.453558 75.549134 L 16.707308 77.503752 L 16.025385 79.473511 L 15.407645 81.458125 L 14.854231 83.457738 L 14.365000 85.472355 L 13.940240 87.501827 L 13.579663 89.546441 L 13.283413 91.605910 L 13.051346 93.680382 L 12.883751 95.769854 L 12.780337 97.874180 L 12.741250 99.993659 L 12.766490 102.127982 L 12.855913 104.277303 L 13.009663 106.441634 L 13.227740 108.620963 L 13.510144 110.815148 L 13.856731 113.024331 L 14.267644 115.248655 L 14.742885 117.487692 L 15.282451 119.741870 L 15.886202 122.011057 L 16.554279 124.295100 L 17.286683 126.594130 L 18.083414 128.908169 L 18.944327 131.237207 L 19.869567 133.581111 L 20.859135 135.940145 L 21.378078 137.125148 L 22.316153 137.934135 L 78.545960 114.453511 L 78.082981 113.319853 L 77.234902 111.086582 L 76.490387 108.899330 L 75.849424 106.757931 L 75.312020 104.662408 L 74.878173 102.612595 L 74.547884 100.608801 L 74.321297 98.650871 L 74.198124 96.738651 L 74.178653 94.872450 L 74.262596 93.051970 L 74.450241 91.277497 L 74.741444 89.548752 L 75.136204 87.866008 L 75.634374 86.228991 L 76.236394 84.637839 L 76.576058 83.859569 L 76.937790 83.092980 L 77.714905 81.595867 L 78.563847 80.147067 L 79.484469 78.746442 L 80.476777 77.394136 L 81.540912 76.089999 L 82.676733 74.834038 L 83.884233 73.626251 L 85.163413 72.466778 L 86.514421 71.355479 L 87.937114 70.292356 L 89.431492 69.277546 L 90.997545 68.310916 L 92.635437 67.392451 L 94.344997 66.522166 L 96.126391 65.700194 L 97.043844 65.307310 L 97.746973 65.025483 L 99.154376 64.532358 L 100.563507 64.133124 L 101.974377 63.827787 L 103.386831 63.616203 L 104.801012 63.498654 L 106.216778 63.474858 L 107.634283 63.544953 L 109.053505 63.709087 L 110.474322 63.966970 L 111.897020 64.318749 L 113.321150 64.764277 L 114.747160 65.303844 L 116.174756 65.937307 L 117.604090 66.664519 L 119.034998 67.485770 L 119.751101 67.931589 L 120.463748 68.399762 L 121.866255 69.399998 L 123.238897 70.485481 L 124.581399 71.656349 L 125.893750 72.912310 L 127.176104 74.253652 L 128.428319 75.680240 L 129.650669 77.191922 L 130.842736 78.788989 L 132.004950 80.471298 L 133.136870 82.238844 L 134.238947 84.091637 L 135.310862 86.029517 L 136.352648 88.052789 L 137.364427 90.161302 L 138.346198 92.355190 L 138.825772 93.483940 L 209.196240 262.003034 L 266.789183 237.953121 L 196.418692 69.434181 L 195.918805 68.252931 L 194.894031 65.927211 L 193.836399 63.650673 L 192.745579 61.423317 L 191.621879 59.245000 L 190.464991 57.116009 L 189.275246 55.036056 L 188.052445 53.005291 L 186.796632 51.023702 L 185.507785 49.091296 L 184.185904 47.208077 L 182.831012 45.373892 L 181.443074 43.588894 L 180.022257 41.853078 L 178.568275 40.166442 L 177.081390 38.528991 L 175.561350 36.940578 L 174.008409 35.401491 L 172.422456 33.911443 L 170.803315 32.470576 L 169.151294 31.078895 L 167.466251 29.736250 L 165.748174 28.442933 L 163.997217 27.198655 L 162.213072 26.003559 L 160.395915 24.857645 L 158.545868 23.760913 L 156.662643 22.713220 L 154.746539 21.714855 L 152.797258 20.765529 L 150.815097 19.865385 L 148.799903 19.014423 L 147.779904 18.607404 L 146.754855 18.213366 L 144.699419 17.466250 L 142.636775 16.774087 L 140.566924 16.136586 L 138.489855 15.554038 L 136.405577 15.026153 L 134.314082 14.553078 L 132.215389 14.134807 L 130.109467 13.771490 L 127.996349 13.462837 L 125.876012 13.208991 L 123.748467 13.009808 L 121.613561 12.865578 L 119.471590 12.776154 L 117.322400 12.741538 Z" transform="scale(1.000000,1.000000) translate(383.178175,325.684154)" fill="#ffffff" opacity="1.000000"></path>
        <path d="M 101.000000 1.000000 L 925.000000 1.000000 C 980.228475 1.000000 1025.000000 45.771525 1025.000000 101.000000 L 1025.000000 924.999999 C 1025.000000 980.228474 980.228475 1024.999999 925.000000 1024.999999 L 101.000000 1024.999999 C 45.771525 1024.999999 1.000000 980.228474 1.000000 924.999999 L 1.000000 101.000000 C 1.000000 45.771525 45.771525 1.000000 101.000000 1.000000 Z" transform="scale(1.000000,1.000000) translate(-12.696836,-25.380952)" opacity="1.000000"></path>
        <path d="M 439.196897 556.982650 L 567.658844 503.339292 L 410.696378 127.455096 Q 375.304465 42.700619 302.206712 14.085047 Q 229.108984 -14.530524 147.775097 19.433039 Q 54.279131 58.475269 18.467393 126.097567 Q -17.344348 193.719847 20.265330 278.440917 L 22.357775 280.245179 L 147.779196 227.871455 Q 130.797410 187.204512 143.385507 159.631024 Q 155.973592 132.057536 189.039244 118.249910 Q 214.123520 107.775176 239.688106 124.103356 Q 265.252668 140.431536 282.234455 181.098479 Z" transform="scale(1.000000,1.000000) translate(238.630686,234.243699)" fill="#2abbfe" opacity="1.000000"></path>
        <path d="M 1.000000 1.000000 L 1.000000 306.276379 L 112.752960 306.276379 Q 166.637590 306.276379 202.910121 271.157008 Q 239.182664 236.037636 239.182664 181.104676 L 239.182664 126.171703 Q 239.182664 71.029059 202.910121 36.014529 Q 166.637590 1.000000 112.752960 1.000000 Z M 71.867730 251.762723 L 71.867730 55.513637 L 112.752960 55.513637 Q 136.864761 55.513637 152.485018 75.222416 Q 168.105262 94.931189 168.105262 126.171703 L 168.105262 181.524005 Q 168.105262 212.345178 152.485018 232.053950 Q 136.864761 251.762723 112.752960 251.762723 Z" transform="scale(1.000000,1.000000) translate(648.260806,234.243700)" fill="#2abbfe" opacity="1.000000"></path>
    </g>
</svg>