<svg width="260" height="260" viewBox="0 0 260 260" xmlns="http://www.w3.org/2000/svg">
  <rect width="260" height="260" rx="24" ry="24" fill="#ffffff"/>
  <g transform="scale(1,-1) translate(0,-260)">
    <path d="M 15 13 L 132.6 13 C 133.7 13 134.6 13.9 134.6 15 L 134.6 200.26 C 134.6 201.37 133.7 202.26 132.6 202.26 L 15 202.26 C 13.9 202.26 13 201.37 13 200.26 L 13 15 C 13 13.9 13.9 13 15 13 Z M 15 1 C 7.27 1 1 7.27 1 15 L 1 200.26 C 1 207.99 7.27 214.26 15 214.26 L 132.6 214.26 C 140.33 214.26 146.6 207.99 146.6 200.26 L 146.6 15 C 146.6 7.27 140.33 1 132.6 1 L 15 1 Z" transform="translate(56.2,22.37)" fill="#111827"/>
    <path d="M 6 11 L 97.76 11 C 100.52 11 102.76 8.76 102.76 6 C 102.76 3.24 100.52 1 97.76 1 L 6 1 C 3.24 1 1 3.24 1 6 C 1 8.76 3.24 11 6 11 Z" transform="translate(77.38,195.3)" fill="#111827"/>
    <path d="M 6 11 L 97.76 11 C 100.52 11 102.76 8.76 102.76 6 C 102.76 3.24 100.52 1 97.76 1 L 6 1 C 3.24 1 1 3.24 1 6 C 1 8.76 3.24 11 6 11 Z" transform="translate(78.12,170.79)" fill="#111827"/>
    <path d="M 6 11 L 97.76 11 C 100.52 11 102.76 8.76 102.76 6 C 102.76 3.24 100.52 1 97.76 1 L 6 1 C 3.24 1 1 3.24 1 6 C 1 8.76 3.24 11 6 11 Z" transform="translate(78.12,146.06)" fill="#111827"/>
    <path d="M 6 11 L 97.76 11 C 100.52 11 102.76 8.76 102.76 6 C 102.76 3.24 100.52 1 97.76 1 L 6 1 C 3.24 1 1 3.24 1 6 C 1 8.76 3.24 11 6 11 Z" transform="translate(78.12,121.87)" fill="#111827"/>
    <path d="M 6 11 L 97.76 11 C 100.52 11 102.76 8.76 102.76 6 C 102.76 3.24 100.52 1 97.76 1 L 6 1 C 3.24 1 1 3.24 1 6 C 1 8.76 3.24 11 6 11 Z" transform="translate(77.13,96.9)" fill="#111827"/>
    <path d="M 137.21 173.82 L 177.14 157.15 L 128.35 40.31 Q 117.35 13.96 94.63 5.07 Q 71.9 -3.83 46.62 6.73 Q 17.56 18.87 6.43 39.89 Q -4.7 60.9 6.99 87.24 L 7.64 87.8 L 46.62 71.52 Q 41.35 58.88 45.26 50.31 Q 49.17 41.74 59.45 37.45 Q 67.25 34.19 75.19 39.27 Q 83.14 44.34 88.42 56.98 Z" transform="translate(46.55,15.48)" fill="#2563eb"/>
    <path d="M 83.19 2.35 L 84.68 2.37 L 84.89 2.38 L 86.38 2.44 L 86.59 2.45 L 88.07 2.55 L 88.28 2.57 L 89.75 2.70 L 89.96 2.73 L 91.43 2.90 L 91.64 2.93 L 93.11 3.14 L 93.31 3.18 L 94.77 3.43 L 94.98 3.47 L 96.43 3.76 L 96.64 3.80 L 98.09 4.13 L 98.29 4.18 L 99.74 4.54 L 99.94 4.60 L 101.38 5.00 L 101.58 5.06 L 103.01 5.50 L 103.20 5.56 L 104.63 6.04 L 104.83 6.11 L 106.25 6.63 L 106.39 6.68 L 107.10 6.95 L 107.20 6.99 L 107.90 7.27 L 108.05 7.33 L 109.45 7.92 L 109.65 8.01 L 111.02 8.64 L 111.22 8.73 L 112.57 9.39 L 112.77 9.49 L 114.10 10.18 L 114.30 10.28 L 115.60 11.01 L 115.80 11.12 L 117.08 11.88 L 117.27 12.00 L 118.53 12.79 L 118.72 12.92 L 119.95 13.74 L 120.14 13.87 L 121.35 14.74 L 121.53 14.87 L 122.73 15.76 L 122.90 15.90 L 124.07 16.83 L 124.24 16.97 L 125.39 17.94 L 125.55 18.08 L 126.68 19.08 L 126.84 19.23 L 127.94 20.26 L 128.10 20.41 L 129.17 21.48 L 129.32 21.63 L 130.38 22.74 L 130.52 22.89 L 131.55 24.03 L 131.69 24.18 L 132.70 25.35 L 132.83 25.51 L 133.82 26.72 L 133.95 26.88 L 134.91 28.11 L 135.03 28.27 L 135.97 29.54 L 136.08 29.70 L 137.00 31.01 L 137.11 31.17 L 138.00 32.51 L 138.11 32.67 L 138.98 34.04 L 139.08 34.20 L 139.92 35.61 L 140.02 35.77 L 140.84 37.21 L 140.93 37.36 L 141.73 38.84 L 141.81 39.00 L 142.59 40.51 L 142.67 40.66 L 143.42 42.20 L 143.50 42.35 L 144.23 43.93 L 144.30 44.08 L 145.01 45.69 L 145.05 45.80 L 145.42 46.66 L 194.21 163.49 L 194.49 164.28 L 194.69 165.07 L 194.80 165.87 L 194.84 166.67 L 194.79 167.45 L 194.68 168.23 L 194.49 168.99 L 194.22 169.73 L 193.89 170.43 L 193.49 171.11 L 193.03 171.74 L 192.51 172.33 L 191.92 172.87 L 191.28 173.36 L 190.58 173.78 L 189.83 174.14 L 149.90 190.82 L 149.11 191.10 L 148.32 191.30 L 147.52 191.41 L 146.73 191.45 L 145.94 191.41 L 145.16 191.29 L 144.40 191.10 L 143.67 190.84 L 142.96 190.51 L 142.29 190.11 L 141.65 189.65 L 141.06 189.12 L 140.52 188.54 L 140.03 187.89 L 139.61 187.20 L 139.25 186.44 L 90.48 69.65 L 90.18 68.94 L 89.57 67.59 L 88.97 66.33 L 88.35 65.13 L 87.73 64.01 L 87.10 62.95 L 86.46 61.96 L 85.82 61.03 L 85.18 60.17 L 84.54 59.37 L 83.89 58.63 L 83.25 57.96 L 82.60 57.35 L 81.96 56.78 L 81.32 56.28 L 80.64 55.79 L 80.36 55.61 L 80.07 55.43 L 79.38 55.03 L 78.77 54.72 L 78.18 54.46 L 77.63 54.25 L 77.11 54.09 L 76.61 53.97 L 76.13 53.88 L 75.68 53.83 L 75.23 53.80 L 74.79 53.81 L 74.34 53.85 L 73.89 53.92 L 73.42 54.02 L 72.93 54.16 L 72.35 54.36 L 72.12 54.45 L 71.68 54.64 L 70.68 55.10 L 69.79 55.56 L 68.94 56.03 L 68.15 56.52 L 67.42 57.02 L 66.73 57.53 L 66.09 58.06 L 65.50 58.60 L 64.94 59.15 L 64.43 59.71 L 63.96 60.30 L 63.52 60.89 L 63.11 61.52 L 62.73 62.16 L 62.36 62.88 L 62.23 63.16 L 62.12 63.40 L 61.87 64.07 L 61.68 64.69 L 61.52 65.35 L 61.41 66.04 L 61.33 66.78 L 61.29 67.57 L 61.30 68.42 L 61.36 69.32 L 61.47 70.28 L 61.64 71.29 L 61.86 72.36 L 62.15 73.49 L 62.51 74.68 L 62.93 75.92 L 63.43 77.23 L 63.71 77.93 L 63.99 78.71 L 64.18 79.50 L 64.29 80.29 L 64.32 81.09 L 64.27 81.87 L 64.15 82.64 L 63.96 83.40 L 63.70 84.13 L 63.36 84.83 L 62.97 85.50 L 62.50 86.13 L 61.98 86.72 L 61.40 87.26 L 60.76 87.74 L 60.06 88.16 L 59.31 88.52 L 20.33 104.80 L 19.79 105.00 L 19.24 105.16 L 18.69 105.29 L 18.14 105.37 L 17.58 105.42 L 17.02 105.42 L 16.46 105.39 L 15.91 105.33 L 15.36 105.22 L 14.83 105.08 L 14.30 104.89 L 13.78 104.68 L 13.28 104.42 L 12.79 104.14 L 12.32 103.81 L 11.88 103.45 L 11.22 102.89 L 10.57 102.26 L 9.99 101.56 L 9.49 100.80 L 9.08 99.99 L 8.72 99.17 L 8.67 99.05 L 7.99 97.42 L 7.92 97.26 L 7.28 95.63 L 7.22 95.46 L 6.62 93.85 L 6.56 93.68 L 6.01 92.07 L 5.95 91.89 L 5.44 90.30 L 5.38 90.11 L 4.92 88.53 L 4.87 88.34 L 4.45 86.77 L 4.40 86.57 L 4.02 85.00 L 3.98 84.80 L 3.65 83.25 L 3.61 83.04 L 3.32 81.49 L 3.28 81.28 L 3.04 79.74 L 3.01 79.52 L 2.82 78.00 L 2.79 77.77 L 2.64 76.26 L 2.62 76.03 L 2.51 74.53 L 2.50 74.29 L 2.44 72.80 L 2.43 72.56 L 2.41 71.08 L 2.41 70.83 L 2.44 69.36 L 2.45 69.11 L 2.52 67.65 L 2.54 67.40 L 2.65 65.95 L 2.68 65.70 L 2.84 64.26 L 2.87 64.01 L 3.08 62.58 L 3.12 62.32 L 3.37 60.91 L 3.42 60.65 L 3.71 59.24 L 3.77 58.99 L 4.11 57.59 L 4.17 57.34 L 4.56 55.96 L 4.63 55.71 L 5.06 54.33 L 5.14 54.09 L 5.61 52.72 L 5.70 52.48 L 6.21 51.13 L 6.31 50.89 L 6.87 49.55 L 6.97 49.32 L 7.58 47.98 L 7.68 47.76 L 8.33 46.44 L 8.42 46.27 L 8.76 45.61 L 8.81 45.51 L 9.17 44.86 L 9.24 44.72 L 9.97 43.42 L 10.08 43.24 L 10.85 41.96 L 10.96 41.78 L 11.76 40.52 L 11.87 40.34 L 12.71 39.09 L 12.83 38.92 L 13.70 37.70 L 13.82 37.53 L 14.73 36.32 L 14.85 36.15 L 15.79 34.96 L 15.92 34.80 L 16.90 33.63 L 17.03 33.47 L 18.04 32.32 L 18.17 32.17 L 19.22 31.03 L 19.35 30.89 L 20.43 29.76 L 20.57 29.63 L 21.69 28.52 L 21.82 28.39 L 22.97 27.30 L 23.11 27.17 L 24.30 26.10 L 24.43 25.98 L 25.65 24.93 L 25.79 24.81 L 27.05 23.78 L 27.19 23.66 L 28.48 22.65 L 28.61 22.54 L 29.94 21.54 L 30.08 21.44 L 31.44 20.45 L 31.57 20.36 L 32.97 19.39 L 33.10 19.30 L 34.53 18.35 L 34.67 18.26 L 36.13 17.33 L 36.27 17.25 L 37.77 16.34 L 37.90 16.26 L 39.43 15.36 L 39.56 15.29 L 41.13 14.41 L 41.26 14.34 L 42.86 13.48 L 42.99 13.41 L 44.63 12.57 L 44.75 12.50 L 46.43 11.68 L 46.55 11.62 L 48.26 10.81 L 48.38 10.75 L 50.12 9.96 L 50.24 9.91 L 52.11 9.10 L 53.08 8.69 L 53.87 8.36 L 53.98 8.32 L 55.55 7.70 L 55.70 7.64 L 57.27 7.05 L 57.43 7.00 L 59.00 6.45 L 59.16 6.40 L 60.72 5.89 L 60.88 5.84 L 62.44 5.37 L 62.61 5.32 L 64.16 4.89 L 64.33 4.84 L 65.88 4.45 L 66.05 4.40 L 67.59 4.05 L 67.78 4.01 L 69.31 3.69 L 69.50 3.65 L 71.03 3.37 L 71.22 3.34 L 72.74 3.10 L 72.93 3.07 L 74.45 2.87 L 74.65 2.84 L 76.17 2.68 L 76.37 2.66 L 77.88 2.53 L 78.08 2.51 L 79.58 2.42 L 79.79 2.41 L 81.29 2.36 L 81.49 2.36 L 82.99 2.34 Z M 81.57 10.50 L 80.07 10.55 L 78.56 10.64 L 77.05 10.77 L 75.54 10.93 L 74.02 11.14 L 72.49 11.38 L 70.96 11.66 L 69.43 11.98 L 67.89 12.33 L 66.34 12.73 L 64.79 13.16 L 63.24 13.63 L 61.68 14.14 L 60.11 14.68 L 58.54 15.27 L 56.97 15.89 L 56.18 16.21 L 55.27 16.60 L 53.49 17.37 L 51.74 18.17 L 50.03 18.98 L 48.36 19.80 L 46.72 20.65 L 45.11 21.51 L 43.54 22.39 L 42.00 23.29 L 40.50 24.20 L 39.03 25.14 L 37.60 26.08 L 36.21 27.05 L 34.85 28.04 L 33.52 29.04 L 32.23 30.06 L 30.97 31.09 L 29.75 32.15 L 28.57 33.22 L 27.42 34.30 L 26.30 35.41 L 25.22 36.53 L 24.17 37.67 L 23.16 38.83 L 22.19 40.01 L 21.24 41.20 L 20.34 42.41 L 19.47 43.63 L 18.63 44.88 L 17.83 46.14 L 17.07 47.42 L 16.33 48.72 L 15.98 49.37 L 15.64 50.03 L 14.99 51.35 L 14.38 52.69 L 13.82 54.03 L 13.30 55.39 L 12.83 56.75 L 12.40 58.13 L 12.02 59.52 L 11.68 60.91 L 11.38 62.32 L 11.13 63.74 L 10.93 65.16 L 10.77 66.60 L 10.65 68.05 L 10.58 69.51 L 10.55 70.98 L 10.57 72.46 L 10.63 73.95 L 10.74 75.45 L 10.89 76.96 L 11.09 78.48 L 11.33 80.01 L 11.61 81.56 L 11.94 83.11 L 12.32 84.67 L 12.73 86.25 L 13.20 87.83 L 13.70 89.42 L 14.26 91.03 L 14.85 92.64 L 15.50 94.27 L 16.18 95.90 L 16.54 96.72 L 17.19 97.29 L 56.18 81.01 L 55.86 80.22 L 55.27 78.67 L 54.75 77.15 L 54.31 75.67 L 53.94 74.22 L 53.63 72.80 L 53.41 71.41 L 53.25 70.05 L 53.16 68.72 L 53.15 67.43 L 53.21 66.17 L 53.34 64.94 L 53.54 63.74 L 53.81 62.57 L 54.16 61.44 L 54.58 60.33 L 54.81 59.79 L 55.06 59.26 L 55.60 58.22 L 56.19 57.22 L 56.83 56.25 L 57.52 55.31 L 58.25 54.41 L 59.04 53.54 L 59.88 52.70 L 60.77 51.89 L 61.70 51.12 L 62.69 50.39 L 63.73 49.68 L 64.81 49.01 L 65.95 48.38 L 67.13 47.77 L 68.37 47.20 L 69.00 46.93 L 69.49 46.74 L 70.47 46.39 L 71.44 46.12 L 72.42 45.91 L 73.40 45.76 L 74.38 45.68 L 75.36 45.66 L 76.35 45.71 L 77.33 45.82 L 78.31 46.00 L 79.30 46.25 L 80.29 46.55 L 81.28 46.93 L 82.27 47.37 L 83.26 47.87 L 84.25 48.44 L 84.75 48.75 L 85.24 49.07 L 86.21 49.77 L 87.16 50.52 L 88.10 51.33 L 89.01 52.20 L 89.89 53.13 L 90.76 54.12 L 91.61 55.17 L 92.44 56.28 L 93.24 57.44 L 94.03 58.67 L 94.79 59.95 L 95.53 61.30 L 96.26 62.70 L 96.96 64.16 L 97.64 65.68 L 97.97 66.47 L 146.76 183.31 L 186.69 166.63 L 137.90 49.79 L 137.56 48.97 L 136.85 47.36 L 136.11 45.78 L 135.36 44.24 L 134.58 42.73 L 133.78 41.25 L 132.95 39.81 L 132.10 38.40 L 131.23 37.03 L 130.34 35.69 L 129.42 34.38 L 128.48 33.11 L 127.52 31.87 L 126.53 30.67 L 125.53 29.50 L 124.50 28.36 L 123.44 27.26 L 122.37 26.20 L 121.27 25.16 L 120.14 24.16 L 119.00 23.20 L 117.83 22.27 L 116.64 21.37 L 115.42 20.51 L 114.19 19.68 L 112.93 18.89 L 111.64 18.13 L 110.34 17.40 L 109.01 16.71 L 107.66 16.05 L 106.28 15.42 L 104.89 14.83 L 104.18 14.55 L 103.47 14.28 L 102.04 13.76 L 100.61 13.28 L 99.18 12.84 L 97.74 12.44 L 96.29 12.07 L 94.84 11.74 L 93.39 11.45 L 91.93 11.20 L 90.46 10.99 L 88.99 10.81 L 87.52 10.67 L 86.04 10.57 L 84.55 10.51 L 83.06 10.49 Z" transform="translate(37,6)" fill="#111827"/>
  </g>
</svg>
